<svg
  width="24"
  height="24"
  xmlns="http://www.w3.org/2000/svg"
  fill="white"
  viewBox="0 0 1024 1024"
>
  <path d="M514.2 14.6C232.9 14.6 0 247.5 0 528.8c0 233.2 150.8 431.1 361.3 501.4 26.4 4.9 36.2-11.5 36.2-25.4 0-12.5-0.5-45.1-0.7-88.7-147.4 32-178.5-71-178.5-71-24-60.8-58.6-77.1-58.6-77.1-48-32.8 3.6-32.2 3.6-32.2 53.1 3.7 81.2 54.5 81.2 54.5 47.3 81 123.8 57.6 154.2 44.1 4.8-34.3 18.6-57.6 33.9-70.7-118.5-13.6-243.4-59.2-243.4-263.4 0-58.1 20.8-105.4 54.9-142.7-5.5-13.7-23.8-67.5 5.2-140.7 0 0 44.6-14.3 146 54.5 42.4-11.7 87.6-17.6 132.6-17.8 44.9 0.2 90.2 6.1 132.7 17.8 101.4-68.8 146-54.5 146-54.5 29 73.2 10.8 127 5.3 140.7 34.2 37.3 54.8 84.6 54.8 142.7 0 204.6-125.2 249.6-243.9 263.2 19.2 16.5 36.3 49.1 36.3 98.7 0 71.4-0.6 129 0.1 146.5 0.1 13.9 9.7 30.5 36.1 25.5 210.5-70.3 361.3-268.2 361.3-501.4 0-281.3-232.9-514.2-514.2-514.2z" />
</svg>
